<svg version="1.1" xmlns="http://www.w3.org/2000/svg" viewBox="0 0 292.9765625 157.15625" width="292.9765625" height="157.15625" filter="invert(93%) hue-rotate(180deg)">
  <!-- svg-source:excalidraw -->
  
  <defs>
    <style class="style-fonts">
      @font-face {
        font-family: "Virgil";
        src: url("https://excalidraw.com/Virgil.woff2");
      }
      @font-face {
        font-family: "Cascadia";
        src: url("https://excalidraw.com/Cascadia.woff2");
      }
    </style>
    
  </defs>
  <rect x="0" y="0" width="292.9765625" height="157.15625" fill="#ffffff"/><g stroke-linecap="round" transform="translate(10 10) rotate(0 136.48828125 68.578125)"><path d="M32 0 M32 0 C82.86 -1.88, 137.16 -0.27, 240.98 0 M32 0 C104.55 -2.26, 176.59 -2.1, 240.98 0 M240.98 0 C262.9 0.72, 271.62 10.66, 272.98 32 M240.98 0 C260.91 0.01, 273.25 8.84, 272.98 32 M272.98 32 C274.07 50.02, 271.46 66.71, 272.98 105.16 M272.98 32 C272.19 51.12, 272.05 71.94, 272.98 105.16 M272.98 105.16 C271.23 124.93, 261.29 136.96, 240.98 137.16 M272.98 105.16 C274.07 128.71, 262.12 135.68, 240.98 137.16 M240.98 137.16 C159.51 138.41, 74.73 137.04, 32 137.16 M240.98 137.16 C190.62 138.45, 140.32 138.74, 32 137.16 M32 137.16 C10.01 137.03, 1.72 126.2, 0 105.16 M32 137.16 C11.49 136, 1.3 124.46, 0 105.16 M0 105.16 C-0.97 87.1, 2.02 71.34, 0 32 M0 105.16 C0.26 85.23, 1.01 64.25, 0 32 M0 32 C-1.5 8.71, 10.47 -0.62, 32 0 M0 32 C-1.25 11.78, 11.15 -2.05, 32 0" stroke="#1e1e1e" stroke-width="1" fill="none"/></g></svg>